<svg width="405" height="56" viewBox="0 0 405 56" fill="none" xmlns="http://www.w3.org/2000/svg">
<g clip-path="url(#clip0_75_9)">
<g filter="url(#filter0_d_75_9)">
<path d="M46.984 1.72802C48.424 1.72802 49.888 1.60802 51.376 1.36802C52.864 1.08002 54.184 0.696019 55.336 0.216019C55.288 3.28802 54.496 5.59202 52.96 7.12802C51.472 8.61602 49.264 9.36002 46.336 9.36002C44.944 9.36002 43.384 9.24002 41.656 9.00002C39.976 8.76002 37.816 8.35202 35.176 7.77602L25.24 54H14.872L25.096 6.33602H24.232C19.576 6.33602 16.144 7.53602 13.936 9.93602C11.776 12.288 10.696 15.936 10.696 20.88C10.696 21.792 10.744 22.584 10.84 23.256C10.984 23.928 11.2 24.576 11.488 25.2C11.584 25.392 11.632 25.536 11.632 25.632C11.68 25.68 11.704 25.728 11.704 25.776C9.016 25.776 7.048 25.224 5.8 24.12C4.6 22.968 4 21.192 4 18.792C4 13.08 6.136 8.54402 10.408 5.18402C14.728 1.77602 20.776 0.0720215 28.552 0.0720215C30.136 0.0720215 31.648 0.14402 33.088 0.288018C34.576 0.38402 36.472 0.60002 38.776 0.936019C40.792 1.27202 42.352 1.48802 43.456 1.58402C44.608 1.68002 45.784 1.72802 46.984 1.72802ZM48.024 54H37.656L45.288 18H55.656L54.72 22.464C56.832 20.688 58.488 19.512 59.688 18.936C60.936 18.312 62.184 18 63.4321 18C64.92 18 66.12 18.528 67.032 19.584C67.9441 20.592 68.4001 21.864 68.4001 23.4C68.4001 24.888 67.9201 26.136 66.9601 27.144C66 28.152 64.752 28.656 63.216 28.656C62.4 28.656 61.752 28.464 61.2721 28.08C60.8401 27.696 60.528 26.904 60.336 25.704C60.192 24.936 60.024 24.456 59.832 24.264C59.64 24.024 59.376 23.904 59.04 23.904C58.224 23.904 57.456 24.072 56.736 24.408C56.016 24.744 55.032 25.488 53.784 26.64L48.024 54ZM91.8271 21.312V21.816L92.6191 18H102.987L97.8031 42.48C97.7071 42.912 97.6351 43.32 97.5871 43.704C97.5391 44.04 97.5151 44.4 97.5151 44.784C97.5151 45.84 97.7551 46.632 98.2351 47.16C98.7151 47.64 99.4588 47.88 100.467 47.88C101.715 47.88 102.843 47.304 103.851 46.152C104.859 44.952 105.675 43.272 106.299 41.112H109.323C107.787 45.528 105.795 48.864 103.347 51.12C100.899 53.328 98.0671 54.432 94.8511 54.432C92.7871 54.432 91.1311 53.856 89.8831 52.704C88.6831 51.552 87.9871 49.92 87.7951 47.808C86.3071 50.016 84.6511 51.672 82.8271 52.776C81.0511 53.88 79.1311 54.432 77.0671 54.432C74.0911 54.432 71.7391 53.424 70.0111 51.408C68.3311 49.392 67.4911 46.536 67.4911 42.84C67.4911 40.152 67.8991 37.344 68.7151 34.416C69.5311 31.488 70.6591 28.824 72.0991 26.424C73.8751 23.592 75.9391 21.432 78.2911 19.944C80.6431 18.408 83.2111 17.64 85.9951 17.64C87.8671 17.64 89.3071 17.976 90.3151 18.648C91.3231 19.272 91.8271 20.16 91.8271 21.312ZM91.1791 24.84C91.1791 24.12 90.9151 23.496 90.3871 22.968C89.8591 22.392 89.1391 22.104 88.2271 22.104C85.5871 22.104 83.2351 24.312 81.1711 28.728C79.1551 33.144 78.1471 37.512 78.1471 41.832C78.1471 43.704 78.4111 45.12 78.9391 46.08C79.4671 46.992 80.4031 47.448 81.7471 47.448C82.9951 47.448 84.1951 46.848 85.3471 45.648C86.5471 44.448 87.3391 42.936 87.7231 41.112L91.1791 24.84ZM130.806 24.12C130.038 24.12 129.414 23.76 128.934 23.04C128.454 22.272 128.214 21.408 128.214 20.448C128.214 19.248 128.598 18.312 129.366 17.64C130.182 16.92 131.286 16.56 132.678 16.56C134.166 16.56 135.294 17.112 136.062 18.216C136.83 19.32 137.214 20.856 137.214 22.824C137.214 26.088 136.782 29.52 135.918 33.12C135.102 36.672 133.974 39.912 132.534 42.84C130.614 46.632 128.31 49.512 125.622 51.48C122.934 53.448 119.958 54.432 116.694 54.432C113.862 54.432 111.678 53.712 110.142 52.272C108.606 50.784 107.838 48.672 107.838 45.936C107.838 45.408 107.886 44.856 107.982 44.28C108.03 43.656 108.102 43.056 108.198 42.48L113.382 18H123.75L118.566 42.48C118.47 43.008 118.374 43.512 118.278 43.992C118.23 44.424 118.206 44.784 118.206 45.072C118.206 45.84 118.398 46.44 118.782 46.872C119.214 47.256 119.838 47.448 120.654 47.448C122.334 47.448 123.966 46.584 125.55 44.856C127.182 43.08 128.646 40.584 129.942 37.368C130.902 35.064 131.67 32.64 132.246 30.096C132.822 27.552 133.11 25.32 133.11 23.4C133.014 23.592 132.702 23.76 132.174 23.904C131.694 24.048 131.238 24.12 130.806 24.12ZM167.023 24.264C167.023 28.248 165.391 31.728 162.127 34.704C158.863 37.632 154.975 39.216 150.463 39.456C150.415 40.272 150.367 40.896 150.319 41.328C150.319 41.712 150.319 42.048 150.319 42.336C150.319 44.544 150.679 46.104 151.399 47.016C152.167 47.928 153.535 48.384 155.503 48.384C157.759 48.384 159.823 47.88 161.695 46.872C163.615 45.816 165.799 43.896 168.247 41.112H170.695C167.911 45.624 164.887 48.984 161.623 51.192C158.359 53.352 154.783 54.432 150.895 54.432C147.199 54.432 144.391 53.472 142.471 51.552C140.599 49.632 139.663 46.776 139.663 42.984C139.663 40.248 140.095 37.344 140.959 34.272C141.823 31.2 142.975 28.464 144.415 26.064C146.191 23.184 148.303 21.024 150.751 19.584C153.247 18.096 156.031 17.352 159.103 17.352C161.743 17.352 163.711 17.928 165.007 19.08C166.351 20.184 167.023 21.912 167.023 24.264ZM159.679 21.168C158.047 21.168 156.391 22.632 154.711 25.56C153.079 28.44 151.855 31.92 151.039 36C153.823 35.808 156.247 34.536 158.311 32.184C160.423 29.784 161.479 27.096 161.479 24.12C161.479 23.112 161.335 22.368 161.047 21.888C160.759 21.408 160.303 21.168 159.679 21.168ZM169.745 45.792C169.745 45.168 169.793 44.472 169.889 43.704C169.985 42.888 170.129 42.024 170.321 41.112L178.025 5.04002L188.681 3.60002L180.401 42.48C180.305 42.912 180.233 43.32 180.185 43.704C180.137 44.04 180.113 44.4 180.113 44.784C180.113 45.744 180.329 46.44 180.761 46.872C181.241 47.256 182.009 47.448 183.065 47.448C184.409 47.448 185.681 46.872 186.881 45.72C188.081 44.52 188.969 42.984 189.545 41.112H192.569C191.033 45.48 188.969 48.792 186.377 51.048C183.785 53.304 180.809 54.432 177.449 54.432C175.049 54.432 173.153 53.688 171.761 52.2C170.417 50.664 169.745 48.528 169.745 45.792Z" fill="#26A59E"/>
<path d="M226.582 54H216.214L226.006 8.208L236.662 6.768L233.278 22.752H233.71C236.398 22.752 238.798 21.528 240.91 19.08C243.022 16.632 244.078 13.968 244.078 11.088C244.078 8.688 243.238 6.792 241.558 5.4C239.926 4.008 237.598 3.312 234.574 3.312C229.534 3.312 225.262 4.92 221.758 8.136C218.302 11.352 216.574 15.576 216.574 20.808C216.574 21.72 216.622 22.512 216.718 23.184C216.862 23.856 217.078 24.504 217.366 25.128C217.462 25.32 217.51 25.464 217.51 25.56C217.558 25.608 217.582 25.656 217.582 25.704C214.99 25.704 213.046 25.152 211.75 24.048C210.502 22.944 209.878 21.288 209.878 19.08C209.878 16.488 210.694 13.944 212.326 11.448C214.006 8.952 216.31 6.768 219.238 4.896C221.638 3.312 224.278 2.112 227.158 1.296C230.086 0.432 233.038 0 236.014 0C240.718 0 244.438 1.056 247.174 3.168C249.958 5.28 251.35 8.04 251.35 11.448C251.35 13.704 250.702 15.864 249.406 17.928C248.11 19.992 246.358 21.648 244.15 22.896C246.886 23.424 248.974 24.72 250.414 26.784C251.902 28.8 252.646 31.368 252.646 34.488C252.646 36.744 252.31 39.12 251.638 41.616C250.966 44.112 250.03 46.32 248.83 48.24C247.39 50.544 245.662 52.296 243.646 53.496C241.63 54.648 239.374 55.224 236.878 55.224C234.622 55.224 232.87 54.768 231.622 53.856C230.374 52.944 229.75 51.624 229.75 49.896C229.75 49.32 229.822 48.696 229.966 48.024C230.11 47.304 230.35 46.536 230.686 45.72C231.598 46.632 232.414 47.304 233.134 47.736C233.902 48.12 234.694 48.312 235.51 48.312C237.67 48.312 239.398 47.064 240.694 44.568C241.99 42.072 242.638 39 242.638 35.352C242.638 32.328 242.062 30.048 240.91 28.512C239.758 26.976 238.054 26.208 235.798 26.208C235.462 26.208 234.958 26.232 234.286 26.28C233.662 26.328 233.062 26.376 232.486 26.424L226.582 54ZM256.301 42.912C256.301 40.176 256.733 37.272 257.597 34.2C258.509 31.128 259.733 28.392 261.269 25.992C263.045 23.16 265.181 21.024 267.677 19.584C270.173 18.096 272.957 17.352 276.029 17.352C279.101 17.352 281.405 18.312 282.941 20.232C284.477 22.152 285.245 25.032 285.245 28.872C285.341 28.92 285.437 28.968 285.533 29.016C285.677 29.016 285.845 29.016 286.037 29.016C287.525 29.016 289.301 28.608 291.365 27.792C293.429 26.976 295.349 25.944 297.125 24.696L297.773 26.64C296.429 28.08 294.629 29.328 292.373 30.384C290.165 31.44 287.717 32.184 285.029 32.616C284.453 39.096 282.581 44.328 279.413 48.312C276.245 52.296 272.381 54.288 267.821 54.288C264.077 54.288 261.221 53.328 259.253 51.408C257.285 49.488 256.301 46.656 256.301 42.912ZM276.605 21.744C274.301 21.744 272.117 24.072 270.053 28.728C268.037 33.384 267.029 37.8 267.029 41.976C267.029 44.232 267.269 45.768 267.749 46.584C268.277 47.4 269.261 47.808 270.701 47.808C272.477 47.808 274.157 46.368 275.741 43.488C277.373 40.608 278.477 37.056 279.053 32.832C278.381 32.688 277.877 32.376 277.541 31.896C277.253 31.368 277.109 30.672 277.109 29.808C277.109 28.896 277.301 28.104 277.685 27.432C278.069 26.76 278.621 26.256 279.341 25.92C279.245 24.384 278.981 23.304 278.549 22.68C278.165 22.056 277.517 21.744 276.605 21.744ZM314.932 21.312V21.816L315.724 18H326.092L320.908 42.48C320.812 42.912 320.74 43.32 320.692 43.704C320.644 44.04 320.62 44.4 320.62 44.784C320.62 45.84 320.86 46.632 321.34 47.16C321.82 47.64 322.564 47.88 323.572 47.88C324.82 47.88 325.948 47.304 326.956 46.152C327.964 44.952 328.78 43.272 329.404 41.112H332.428C330.892 45.528 328.9 48.864 326.452 51.12C324.004 53.328 321.172 54.432 317.956 54.432C315.892 54.432 314.236 53.856 312.988 52.704C311.788 51.552 311.092 49.92 310.9 47.808C309.412 50.016 307.756 51.672 305.932 52.776C304.156 53.88 302.236 54.432 300.172 54.432C297.196 54.432 294.844 53.424 293.116 51.408C291.436 49.392 290.596 46.536 290.596 42.84C290.596 40.152 291.004 37.344 291.82 34.416C292.636 31.488 293.764 28.824 295.204 26.424C296.98 23.592 299.044 21.432 301.396 19.944C303.748 18.408 306.316 17.64 309.1 17.64C310.972 17.64 312.412 17.976 313.42 18.648C314.428 19.272 314.932 20.16 314.932 21.312ZM314.284 24.84C314.284 24.12 314.02 23.496 313.492 22.968C312.964 22.392 312.244 22.104 311.332 22.104C308.692 22.104 306.34 24.312 304.276 28.728C302.26 33.144 301.252 37.512 301.252 41.832C301.252 43.704 301.516 45.12 302.044 46.08C302.572 46.992 303.508 47.448 304.852 47.448C306.1 47.448 307.3 46.848 308.452 45.648C309.652 44.448 310.444 42.936 310.828 41.112L314.284 24.84ZM339.011 54H328.643L336.275 18H346.643L345.707 22.464C347.819 20.688 349.475 19.512 350.675 18.936C351.923 18.312 353.171 18 354.419 18C355.907 18 357.107 18.528 358.019 19.584C358.931 20.592 359.387 21.864 359.387 23.4C359.387 24.888 358.907 26.136 357.947 27.144C356.987 28.152 355.739 28.656 354.203 28.656C353.387 28.656 352.739 28.464 352.259 28.08C351.827 27.696 351.515 26.904 351.323 25.704C351.179 24.936 351.011 24.456 350.819 24.264C350.627 24.024 350.363 23.904 350.027 23.904C349.211 23.904 348.443 24.072 347.723 24.408C347.003 24.744 346.019 25.488 344.771 26.64L339.011 54ZM369.486 41.832C369.486 43.704 369.75 45.12 370.278 46.08C370.806 46.992 371.742 47.448 373.086 47.448C374.286 47.448 375.462 46.896 376.614 45.792C377.766 44.64 378.558 43.2 378.99 41.472V41.112L382.518 24.624C382.374 23.856 382.038 23.256 381.51 22.824C381.03 22.344 380.382 22.104 379.566 22.104C376.926 22.104 374.574 24.312 372.51 28.728C370.494 33.144 369.486 37.512 369.486 41.832ZM383.166 21.312V21.6L386.694 5.04L397.35 3.6L389.07 42.48C388.974 42.912 388.902 43.32 388.854 43.704C388.806 44.04 388.782 44.4 388.782 44.784C388.782 45.744 388.998 46.44 389.43 46.872C389.91 47.256 390.678 47.448 391.734 47.448C392.982 47.448 394.11 46.896 395.118 45.792C396.126 44.688 396.942 43.128 397.566 41.112H400.59C399.102 45.384 397.158 48.6 394.758 50.76C392.406 52.92 389.526 54 386.118 54C384.15 54 382.542 53.472 381.294 52.416C380.094 51.312 379.35 49.776 379.062 47.808C377.622 50.016 376.014 51.672 374.238 52.776C372.462 53.88 370.518 54.432 368.406 54.432C365.43 54.432 363.078 53.424 361.35 51.408C359.67 49.392 358.83 46.536 358.83 42.84C358.83 40.152 359.238 37.344 360.054 34.416C360.87 31.488 361.998 28.824 363.438 26.424C365.214 23.592 367.278 21.432 369.63 19.944C371.982 18.408 374.55 17.64 377.334 17.64C379.206 17.64 380.646 17.976 381.654 18.648C382.662 19.272 383.166 20.16 383.166 21.312Z" fill="black"/>
</g>
</g>
<defs>
<filter id="filter0_d_75_9" x="0" y="0" width="404.59" height="63.224" filterUnits="userSpaceOnUse" color-interpolation-filters="sRGB">
<feFlood flood-opacity="0" result="BackgroundImageFix"/>
<feColorMatrix in="SourceAlpha" type="matrix" values="0 0 0 0 0 0 0 0 0 0 0 0 0 0 0 0 0 0 127 0" result="hardAlpha"/>
<feOffset dy="4"/>
<feGaussianBlur stdDeviation="2"/>
<feComposite in2="hardAlpha" operator="out"/>
<feColorMatrix type="matrix" values="0 0 0 0 0 0 0 0 0 0 0 0 0 0 0 0 0 0 0.25 0"/>
<feBlend mode="normal" in2="BackgroundImageFix" result="effect1_dropShadow_75_9"/>
<feBlend mode="normal" in="SourceGraphic" in2="effect1_dropShadow_75_9" result="shape"/>
</filter>
<clipPath id="clip0_75_9">
<rect width="404.59" height="55.224" fill="white"/>
</clipPath>
</defs>
</svg>
